
   <svg
         xmlns:dc="http://purl.org/dc/elements/1.1/"
        xmlns:cc="http://creativecommons.org/ns#"
         xmlns:rdf="http://www.w3.org/1999/02/22-rdf-syntax-ns#"
         xmlns:svg="http://www.w3.org/2000/svg"
          xmlns="http://www.w3.org/2000/svg"
          xmlns:sodipodi="http://sodipodi.sourceforge.net/DTD/sodipodi-0.dtd"
          xmlns:inkscape="http://www.inkscape.org/namespaces/inkscape"
          id="Capa_1"
          data-name="Capa 1"
          viewBox="0 0 535.2 466.28"
          version="1.1"
          sodipodi:docname="biobio_mapa.svg"
          inkscape:version="0.92.3 (2405546, 2018-03-11)">
          <metadata
          id="metadata5808">
         <rdf:RDF>
           <cc:Work
               rdf:about="">
               <dc:format>image/svg+xml</dc:format>
               <dc:type
                   rdf:resource="http://purl.org/dc/dcmitype/StillImage" />
           </cc:Work>
           </rdf:RDF>
           </metadata>
  <sodipodi:namedview
     pagecolor="#ffffff"
     bordercolor="#666666"
     borderopacity="1"
     objecttolerance="10"
     gridtolerance="10"
     guidetolerance="10"
     inkscape:pageopacity="0"
     inkscape:pageshadow="2"
     inkscape:window-width="1920"
     inkscape:window-height="1001"
     id="namedview5806"
     showgrid="false"
     inkscape:zoom="3.4485717"
     inkscape:cx="170.26286"
     inkscape:cy="331.3704"
     inkscape:window-x="-9"
     inkscape:window-y="-9"
     inkscape:window-maximized="1"
     inkscape:current-layer="Provincia_Concepción" />
         <defs
     id="defs5565">
            <style
       id="style5563">
      .cls-1, .cls-2, .cls-3, .cls-4, .cls-5, .cls-6, .cls-7 {
        fill: none;
        stroke-linejoin: round;
      }

      .cls-1, .cls-5 {
        stroke: #0070ba;
      }

      .cls-1, .cls-6, .cls-7 {
        fill-rule: evenodd;
      }

      .cls-2, .cls-7 {
        stroke: #85a652;
      }

      .cls-3 {
        stroke: #342783;
        stroke-width: 1.5px;
      }

      .cls-4, .cls-6 {
        stroke: #e6007e;
      }

      .cls-8 {
        fill: #e86940;
        font-family: ArialNarrow, Arial;
        font-size: 12px;
      }
            </style>
        </defs>
        <g
     id="Provincia_Biobío"
     inkscape:label="#g3763">
            <path
            style="fill:#85a652;stroke:#365a00;stroke-width:3;stroke-linejoin:round"
       inkscape:connector-curvature="0"
       id="Quilleco"
       title="QUILLECO"
       d="m 446.46,219.54 c 0,0 -3.52,-3.25 -4.77,-3.25 -1.25,0 -12.75,4 -12.75,4 l -8.75,-9.5 c 0,0 -33.5,-18 -35,-18 -1.5,0 -10.25,4 -10.25,4 l -6.62,-2.38 c 0,0 -8.76,-0.99 -12.01,-9.12 -3.25,-8.13 -6,-12.12 -12.12,-15.25 l -0.5,-5 -6.27,-4.36 c -0.48,0.7 -0.77,1.56 -0.81,2.48 -0.23,1.79 -1.74,3.17 -3.59,3.17 l -0.08,6.08 c 0,0 -6.5,8.62 -7,12.25 -0.5,3.63 0,4.37 0,4.37 l 7.38,0.37 2.38,17.62 1,5.87 c 0,0 -5.5,-1 -5.25,1.5 0.25,2.5 0.62,3 4.75,2.75 h 5.5 c 0,0 -12,13.62 -13.12,14.37 -1.12,0.75 -10,10 -10,10 l 1.25,1.25 2.88,-1 5.12,2.5 -4.12,4.75 5.88,0.37 23,-9.62 c 0,0 1.38,-3 5.38,-3.25 4,-0.25 6.62,2.87 6.62,2.87 l 5.75,-0.37 c 0,0 2.38,-9.25 16.38,-9.5 14,-0.25 17.75,7.87 17.75,7.87 h 26.75 c 0,0 5.12,6.12 12,5.75 6.88,-0.37 1.62,-9.87 1.62,-9.87 l 1.64,-13.75 z"
       class="cls-2"
       inkscape:label="#path5569"/>
            <path
       inkscape:label="#path5567"
       class="cls-7"
       d="m 405.58,382.46 c 0.11,-1.4 0.22,-2.91 0.33,-4.3 -1.65,-1.19 -2.76,-3.41 -2.76,-5.96 0,-2.85 1.39,-5.29 3.37,-6.33 -0.02,-3.3 -0.33,-5.88 -1.16,-7.25 -4.62,-7.7 -13.66,-11.08 -13.66,-11.08 l -12.18,7.83 c 0,0 -6.53,3.44 -8.07,1.42 -3.49,-4.58 -9.58,-13.79 -13.5,-15.75 -5.65,-2.82 -9.31,3.14 -15.39,2.72 -14.58,-1 -15.8,-17.48 -29.04,-23.67 -10.84,-5.06 -29.83,-7.17 -29.83,-7.17 l -16.86,-22.41 c -2.62,-7.45 -4.92,-25.11 -4.92,-25.11 0,0 3.87,-12.13 2.47,-13.77 -1.4,-1.64 -2.81,-2.34 -2.81,-2.34 0,0 8,-5.43 8.94,-5.19 0.94,0.23 0.65,2.34 3.74,3.04 3.09,0.7 9.92,1.17 9.92,1.17 l 21.38,8.75 4.02,-0.05 8,8.75 5.17,1.62 h 0.02 c 0,0 2.8,6.49 8.04,8.81 5.24,2.32 9.31,1.31 9.31,1.31 l 6.26,5.24 c 0,0 4.35,-1.6 8,2.32 3.65,3.92 3.21,14.84 3.21,14.84 l 40.29,25.6 10.03,0.15 c 0,0 1.02,6.55 8.29,6.4 0,0 -2.61,9.62 -1.6,14.55 1.02,4.93 5.22,5.8 5.22,5.8 l -2.47,8.73 c 0,0 4.52,1.47 4.81,2.34 0.29,0.87 -0.89,7.13 -4.37,7.85 -3.48,0.72 -4.5,-2.49 -4.5,-2.49 l -4.52,13.68 -3.2,-0.05 z"
       id="Mulchén"
       title="MULCHÉN"
       inkscape:connector-curvature="0"
       style="fill:#85a652;fill-rule:evenodd;stroke:#365a00;stroke-width:3;stroke-linejoin:round" /> 
            <path
       inkscape:label="#path5571"
       class="cls-7"
       d="m 337.43,160.68 c 0.3,-0.44 0.68,-0.82 1.15,-1.1 2.09,-1.25 4.99,-0.25 6.49,2.24 l 0.1,0.17 c 0,0 6.58,2.62 15.03,0.9 5.6,-1.14 13.83,-4.83 13.83,-4.83 0,-8.25 6.1,-14.27 14.92,-14.27 6.71,0 11.99,2.92 15.25,8.25 l 22.98,-5.47 0.37,-17.03 c 1.66,-0.02 7.02,-0.25 7.02,-0.25 0,0 5.38,2.25 5.12,9.12 -0.26,6.87 -3.12,11.25 -3.12,11.25 l 0.25,21 c 0,0 0.38,10.12 -1.88,12.75 -2.26,2.63 -11.62,3.75 -19,2.75 -7.38,-1 -42,4.37 -42,4.37 l -5.62,3.87 c 0,0 -8.75,-1 -12,-9.12 -3.25,-8.12 -6,-12.12 -12.12,-15.25 l -0.5,-5 -6.27,-4.36 z"
       id="Tucapel"
       title="TUCAPEL"
       inkscape:connector-curvature="0"
       style="fill:#85a652;fill-rule:evenodd;stroke:#365a00;stroke-width:3;stroke-linejoin:round" />
            <path
       inkscape:label="#path5573"
       class="cls-2"
       d="m 469.95,237.04 c 0,0 16.82,25.3 23.27,24.25 l 1.99,4.76 8.04,19.08 3.18,15.48 -7.88,6.69 10.51,1.12 2.68,7.97 7,15.57 10.26,25.45 c 0.58,-0.43 1.29,-0.68 2.05,-0.68 2.02,0 3.66,1.76 3.66,3.94 0,2.18 -9.94,6.69 -9.94,6.69 l -10.84,-9.9 -9.72,6.34 -20.17,-2.17 c -0.2,2.09 -1.96,3.72 -4.09,3.72 -2.27,0 -4.11,-1.84 -4.11,-4.11 0,-0.17 0,-0.33 0.03,-0.49 l -13.4,-1.44 c 0,0 -2.11,3.25 -5.67,8.05 0,0 0.79,-3.07 0.54,-6.68 -0.55,-8.02 -5.75,-9.12 -5.75,-9.12 l -5.75,-0.75 c 0,0 0.75,-5 0,-7.87 -0.75,-2.87 -5,-1.62 -5,-1.62 0,0 -6.5,-3.75 -9.75,-5.87 -3.25,-2.12 -2.38,-6.62 -2.38,-6.62 0,0 0.88,-3.5 -0.38,-5 -1.26,-1.5 -5,-0.5 -5,-0.5 l -13,-12.62 c 0.5,-5.5 -2.88,-7.25 -2.88,-7.25 l 4,-18 c 0,0 5.12,4.87 10,0.75 4.88,-4.12 -0.75,-8.87 -0.75,-8.87 l 4,-4 c 0,0 -1.5,-3.12 0.88,-5.25 2.38,-2.13 5.5,0.87 5.5,0.87 0,0 25.63,-13.23 28.13,-15.48 2.5,-2.25 -0.38,-9.9 -0.38,-9.9 0,0 -0.25,-3 2.25,-3.62 2.5,-0.62 3.75,1.12 3.75,1.12 l 5.12,-4 z"
       id="Alto_Biobío"
       title="ALTO BIOBÍO"
       inkscape:connector-curvature="0"
       style="fill:#85a652;stroke:#365a00;stroke-width:3;stroke-linejoin:round" />
            <path
       inkscape:label="#path5575"
       class="cls-7"
       d="m 321.33,266.94 8.78,-4.36 13.57,5.95 18.43,2.05 c 0,0 7.04,5.82 9.34,6.85 2.3,1.02 5.25,-3.07 5.25,-3.07 l 21.18,14.85 6.72,0.26 3.97,8.87 -1.13,5.08 c 0,0 3.38,1.75 2.88,7.25 l 13,12.62 c 0,0 3.75,-1 5,0.5 1.25,1.5 0.38,5 0.38,5 0,0 -0.88,4.5 2.38,6.62 3.26,2.12 9.75,5.87 9.75,5.87 0,0 4.25,-1.25 5,1.62 0.75,2.87 0,7.87 0,7.87 l 5.75,0.75 c 0,0 5.2,1.11 5.75,9.12 0.25,3.6 -0.53,6.68 -0.53,6.68 0.78,1.41 1.21,3.08 1.21,4.86 0,5.04 -3.58,9.13 -8,9.13 -1.3,0 -2.53,-0.35 -3.61,-0.98 -3.7,4.28 -7.84,8.69 -12.2,12.68 -2.57,2.35 -5.01,-1.96 -8.5,2 -6.05,6.85 -8.18,17.97 -9.75,16.5 -2.65,-2.48 -10.06,-6.49 -10.92,-12.84 2.88,-0.01 5.21,-1.8 5.21,-4 0,-2.2 -2.32,-3.98 -5.2,-4 0.12,-2.66 0.32,-5.45 0.53,-8.23 l 3.21,0.05 4.52,-13.68 c 0,0 1.02,3.21 4.5,2.49 3.48,-0.72 4.66,-6.98 4.37,-7.85 -0.29,-0.87 -4.81,-2.34 -4.81,-2.34 l 2.47,-8.73 c 0,0 -4.21,-0.87 -5.22,-5.8 -1.02,-4.93 1.6,-14.55 1.6,-14.55 -7.27,0.15 -8.29,-6.4 -8.29,-6.4 l -10.03,-0.15 -40.29,-25.6 c 0,0 0.44,-10.92 -3.21,-14.84 -3.65,-3.92 -8,-2.32 -8,-2.32 l -6.26,-5.24 c 0,0 -4.06,1.02 -9.31,-1.31 -5.24,-2.32 -8.04,-8.81 -8.04,-8.81 h -0.02 c 0,0 -1.41,-0.45 -1.41,-0.45 z"
       id="Quilaco"
       title="QUILACO"
       inkscape:connector-curvature="0"
       style="fill:#85a652;fill-rule:evenodd;stroke:#365a00;stroke-width:3;stroke-linejoin:round" />
            <path
       inkscape:label="#path5577"
       class="cls-7"
       d="m 427.58,129.54 c 1.66,-0.02 6.99,-0.25 6.99,-0.25 0,0 5.38,2.25 5.12,9.12 -0.26,6.87 -3.12,11.25 -3.12,11.25 l 0.25,21 c 0,0 0.38,10.12 -1.88,12.75 -2.26,2.63 -11.62,3.75 -19,2.75 -7.38,-1 -42,4.37 -42,4.37 l -5.62,3.87 6.62,2.37 c 0,0 8.75,-4 10.25,-4 1.5,0 35,18 35,18 l 8.75,9.5 c 0,0 11.5,-4 12.75,-4 1.25,0 4.77,3.25 4.77,3.25 l 8.95,-1.12 11.63,20.89 2.91,-2.26 c 0,0 16.82,25.3 23.27,24.25 h -0.02 c 7.5,-5.75 15.68,-11.21 16.25,-28.25 0.25,-7.5 1.25,-21.25 -12.67,-31.16 l -6.83,-24.59 18,-16.25 -4,-17.75 -30.5,-1.75 c 0,0 -5.54,-6.81 -10.5,-7.25 -3.99,-0.35 -9.75,3.25 -9.75,3.25 -10.52,-1.03 -9.68,-9.14 -12.25,-13.5 -2.57,-4.36 -13.25,-0.5 -13.25,-0.5 l -0.12,6 z"
       id="Antuco"
       title="ANTUCO"
       inkscape:connector-curvature="0"
       style="fill:#85a652;fill-rule:evenodd;stroke:#365a00;stroke-width:3;stroke-linejoin:round" />
            <path
       inkscape:label="#path5579"
       class="cls-7"
       d="m 467.04,239.3 -11.63,-20.89 -8.95,1.12 -1.64,13.75 c 0,0 5.25,9.5 -1.62,9.87 -6.87,0.37 -12,-5.75 -12,-5.75 h -26.75 c 0,0 -3.75,-8.12 -17.75,-7.87 -14,0.25 -16.38,9.5 -16.38,9.5 l -5.75,0.37 c 0,0 -2.62,-3.12 -6.62,-2.87 -4,0.25 -5.38,3.25 -5.38,3.25 l -23,9.62 -5.87,-0.38 -4.14,17.35 1.78,0.56 8.77,-4.36 13.57,5.95 18.43,2.05 c 0,0 7.04,5.82 9.34,6.85 2.3,1.02 5.25,-3.07 5.25,-3.07 l 21.18,14.85 6.72,0.26 3.99,8.85 2.85,-12.9 c 0,0 5.12,4.87 10,0.75 4.88,-4.12 -0.75,-8.87 -0.75,-8.87 l 4,-4 c 0,0 -1.5,-3.12 0.88,-5.25 2.38,-2.13 5.5,0.87 5.5,0.87 0,0 25.63,-13.23 28.13,-15.48 2.5,-2.25 -0.38,-9.9 -0.38,-9.9 0,0 -0.25,-3 2.25,-3.62 2.5,-0.62 3.75,1.12 3.75,1.12 l 2.22,-1.74 z"
       id="Santa_Bárbara"
       title="SANTA BÁRBARA"
       inkscape:connector-curvature="0"
       style="fill:#85a652;fill-rule:evenodd;stroke:#365a00;stroke-width:3;stroke-linejoin:round" />
            <path
       inkscape:label="#path5581"
       class="cls-7"
       d="m 319.57,266.38 -2,-0.62 -8,-8.75 -4.02,0.05 -21.38,-8.75 c 0,0 -6.83,-0.47 -9.92,-1.17 -3.09,-0.7 -2.81,-2.81 -3.74,-3.04 -0.94,-0.23 -8.92,5.2 -8.92,5.2 l -14.18,1.48 -6.87,-17.35 -9.35,-1.68 -4.74,-6.87 3.38,-7.67 -0.68,-13.74 10.48,2.93 20.88,1.8 11.38,-11.61 -15.09,-19.94 7.06,-7.44 34.88,-0.89 30.92,-4.21 c 0.55,1.31 1.86,2.22 3.37,2.22 l -0.09,6.07 c 0,0 -6.49,8.64 -6.99,12.26 -0.5,3.62 0,4.37 0,4.37 l 7.38,0.37 2.38,17.62 1,5.87 c 0,0 -5.5,-1 -5.25,1.5 0.25,2.5 0.62,3 4.75,2.75 h 5.5 c 0,0 -12,13.62 -13.12,14.37 -1.12,0.75 -10,10 -10,10 l 1.25,1.25 2.88,-1 5.12,2.5 -4.12,4.76 -4.14,17.34 z"
       id="Los_Ángeles"
       title="LOS ÁNGELES"
       inkscape:connector-curvature="0"
       style="fill:#85a652;fill-rule:evenodd;stroke:#365a00;stroke-width:3;stroke-linejoin:round" />
            <path
       inkscape:label="#path5583"
       class="cls-7"
       d="m 261.92,265.4 c 0,0 3.87,-12.13 2.47,-13.77 -1.4,-1.64 -2.82,-2.33 -2.82,-2.33 l -14.17,1.47 -5.09,-12.86 -7.81,2.89 c 0,0 -2.51,22.28 -2.51,22.94 0.86,1.03 1.96,1.95 3.24,2.75 -1.16,1.72 -2.71,4.22 -2.28,4.71 0.47,0.53 7,-0.81 10.82,-1.66 6.15,0.98 13.13,-0.09 18.14,-4.15 z"
       id="Negrete"
       title="NEGRETE"
       inkscape:connector-curvature="0"
       style="fill:#85a652;fill-rule:evenodd;stroke:#365a00;stroke-width:3;stroke-linejoin:round" />
            <path
       inkscape:label="#path5585"
       class="cls-7"
       d="m 218.09,186.79 c 0.18,-1.55 0.14,-3.95 -0.64,-7.82 l 8.64,-0.43 13.5,-6.5 h 7.62 l 9.58,4.6 15.1,19.94 -11.38,11.61 -21.07,-1.8 -10.48,-2.94 -6.25,-1.9 -1.37,-3.12 -3.25,-11.62 z"
       id="Laja"
       title="LAJA"
       inkscape:connector-curvature="0"
       style="fill:#85a652;fill-rule:evenodd;stroke:#365a00;stroke-width:3;stroke-linejoin:round" />
            <path
       inkscape:label="#path5587"
       class="cls-7"
       d="m 218.04,186.78 -3.34,10.1 -33.8,10.04 -8.8,18.88 -5.06,6.95 2.49,13.8 -8.31,14.99 3.96,-0.56 c 0.92,1.97 2.5,5.01 3.96,5.01 2.11,0 9.1,-4.7 9.1,-4.7 l 32.34,-6.73 c 0,0 3.54,6.44 8.38,7.49 4.34,0.94 11.28,-1.56 11.28,-1.56 0.28,1.03 0.96,2.34 1.75,3.25 l 0.02,0.02 c 0,-0.66 2.51,-22.94 2.51,-22.94 l 7.8,-2.89 -1.78,-4.5 -9.35,-1.68 -4.74,-6.87 3.38,-7.67 -0.67,-13.75 -6.25,-1.91 -1.38,-3.12 -3.48,-11.64 z"
       id="Nacimiento"
       title="NACIMIENTO"
       inkscape:connector-curvature="0"
       style="fill:#85a652;fill-rule:evenodd;stroke:#365a00;stroke-width:3;stroke-linejoin:round" />
            <path
       inkscape:label="#path5589"
       class="cls-7"
       d="m 217.43,178.97 8.65,-0.43 7.03,-3.39 0.88,-5.03 -6.34,-8.66 -15.44,0.32 -5.55,-1.1 c 0,0 -5.33,2.99 -5.66,3.22 -0.33,0.22 -0.89,5.64 -0.89,5.64 5.07,0.22 11.85,1.37 16.01,6.23 0.59,0.69 1.01,1.85 1.32,3.18 z"
       id="San_Rosendo"
       title="SAN ROSENDO"
       inkscape:connector-curvature="0"
       style="fill:#85a652;fill-rule:evenodd;stroke:#365a00;stroke-width:3;stroke-linejoin:round" />
            <path
       inkscape:label="#path5591"
       class="cls-2"
       d="m 230.55,107.81 c 0.12,0.06 0.26,0.08 0.26,0.08 l 22.61,2.78 1.61,30.87 7.25,5.25 -2.5,4.62 3.88,4.88 10.26,12.64 -10.06,0.26 -7.06,7.45 -9.58,-4.6 h -7.62 l -6.46,3.12 0.87,-5.03 -6.34,-8.66 -15.44,0.32 -5.55,-1.1 1.74,-18.78 6.5,-4.25 2,-12.25 -6.75,-3.38 13.62,-11.38 0.38,3.25 5.75,0.12 0.65,-6.23 z"
       id="Yumbel"
       title="YUMBEL"
       inkscape:connector-curvature="0"
       style="fill:#85a652;stroke:#365a00;stroke-width:3;stroke-linejoin:round" />
            <path
       inkscape:label="#path5593"
       class="cls-2"
       d="m 253.43,110.67 c 0,0 -1.59,-7.59 2.51,-9.9 4.11,-2.31 8,5.72 8,5.72 l 7.37,3.03 c 0,0 0.91,-3.59 3.51,-4.49 4.33,-1.51 13,15.15 13,15.15 0,0 23.49,3.32 24.38,9.8 0.88,6.43 -10.53,9.77 -10.53,9.77 l -2.94,28.55 -24.82,0.62 -10.26,-12.64 -3.88,-4.88 2.5,-4.62 -7.25,-5.25 -1.59,-30.87 z"
       id="Cabrero"
       title="CABRERO"
       inkscape:connector-curvature="0"
       style="fill:#85a652;stroke:#365a00;stroke-width:3;stroke-linejoin:round" />
        </g>
        <g
     id="Provincia_Concepción"
     inkscape:label="#g3774"
     onmouseover="">
            <path
       inkscape:label="#path5613"
       class="cls-6"
       d="m 159.82,149.31 -5.87,-9.7 -8.14,4.26 -3.66,0.17 c 0.3,2.78 -0.1,6.15 -2.17,9.62 -4.75,1.25 -5.64,7.52 -4.06,9.73 l 12.22,-0.2 2.41,0.99 0.57,8.28 4.17,0.14 4.54,-23.29 z"
       id="Lota"
       title="LOTA"
       inkscape:connector-curvature="0"
       style="fill:#e6007e;fill-rule:evenodd;stroke:#72003f;stroke-width:3;stroke-linejoin:round" />
            <path
       inkscape:label="#path5615"
       class="cls-4"
       d="m 169,142.67 c -0.12,9.25 1.85,17.89 12.36,24.26 1.63,0.99 5.06,-0.41 7.08,0.42 1.96,0.8 1.81,4.03 4.17,4.67 3.64,0.99 7.96,0.21 12.67,0.75 6.8,0.78 9.55,6.88 12.76,13.99 l -3.35,10.1 -33.8,10.04 -8.8,18.88 -1.97,2.69 -22.98,-5.6 -1.33,-15.86 9.9,-22.44 -8,-2.27 -1.9,-5.87 5.3,-3.97 4.17,0.14 4.54,-23.29 4.6,-6.72 4.58,0.09 z"
       id="Santa_Juana"
       title="SANTA JUANA"
       inkscape:connector-curvature="0"
       style="fill:#e6007e;stroke:#72003f;stroke-width:3;stroke-width:3;stroke-linejoin:round" />
            <path
       id="path5621"
       d="M200.15,169.56s-.04,0-.05,0"
       class="cls-3" />
            <path
       class="cls-6"
       d="m 168.19,59.07 12.52,0.59 17.05,8.48 18.88,-9 -1.79,-11.57 c -1.74,-0.05 -3.3,-1.32 -2.19,-3.98 0.15,-0.37 -0.18,-2.42 0,-2.76 -5.38,0.18 -8.89,0.07 -12.3,-3.07 -2.31,-1.84 -0.74,-5.89 -1.36,-9.08 -0.75,-3.94 -5.05,-3.92 -4.93,-7.37 0.08,-2.22 0.68,-3.21 2.31,-5.19 1.53,-1.87 -0.09,-8.19 -0.09,-9.33 0,-2.06 -1.04,-3.73 -2.33,-3.73 -1.12,0 -2.06,1.27 -2.28,2.95 -3.8,-0.6 -5.43,-0.79 -7.96,-1.69 -1.23,-0.43 -0.08,-3.8 -0.99,-3.84 0,0 -3.83,0.67 -3.93,2.67 -0.31,6.09 -1.32,10.95 -2.13,14.02 -0.33,-0.2 -0.72,-0.32 -1.13,-0.32 -1.27,0 -2.31,1.13 -2.31,2.53 0,1.1 0.64,2.03 1.53,2.38 l -3.72,4.6 -1.82,-6.53 -2.81,0.43 -0.65,8.44 -2.85,2.08 c 0,0 -0.82,1.07 0.65,3.07 0.44,0.59 3.75,7.78 5.6,7.78 l 0.42,0.74 c 1.92,6.89 -2.96,6.55 -3.67,10.4 -0.42,2.31 3.24,3.89 2.42,5.95 -0.05,0.12 -0.1,0.24 -0.15,0.36 z"
       id="Tomé"
       title="TOMÉ"
       inkscape:connector-curvature="0"
       style="fill:#e6007e;fill-rule:evenodd;stroke:#72003f;stroke-width:3;stroke-linejoin:round" />
            <path
       class="cls-4"
       d="m 214.86,47.58 c 0,0 0.06,0 0.09,0 0.95,0 1.81,-0.35 2.4,-0.91 9.67,5.19 18.43,9.51 19.81,17.76 1.53,9.17 0.45,15.24 1.9,19.95 0.53,1.73 7.87,3.33 8.25,4.68 0.75,2.65 -7.09,11.97 -11.19,10.94 -4.11,-1.03 -6.97,-2.73 -8,2.15 -0.86,4.09 1.62,5.35 2.44,5.64 l -0.66,6.23 -5.75,-0.12 -0.38,-3.25 -6.73,5.62 -17.27,0.63 -7.12,-10.5 -3.45,-11.12 3.2,-14 -4.38,-1.38 v -7 l 9.75,-4.75 18.88,-9 -1.78,-11.57 z"
       id="Florida"
       title="FLORIDA"
       inkscape:connector-curvature="0"
       style="fill:#e6007e;stroke:#72003f;stroke-width:3;stroke-width:3;stroke-linejoin:round" />
            <path
       class="cls-6"
       d="m 168.19,59.07 c -1.7,4.26 -3.17,7.39 -4.84,8.17 -0.7,0.33 -1.68,0.57 -2.88,0.72 l -4.93,7.02 6.41,4.66 11.63,-5.63 5.77,6.22 8.66,-0.33 v -7 l 9.75,-4.75 -8.88,-4.42 -8.17,-4.07 -12.49,-0.59"
       id="Penco"
       title="PENCO"
       inkscape:connector-curvature="0"
       style="fill:#e6007e;fill-rule:evenodd;stroke:#72003f;stroke-width:3;stroke-linejoin:round" />
            <path
       class="cls-6"
       d="m 148.17,86.08 3.68,-5.65 -8.49,-2.32 -6.98,-3.45 c -3.46,0.63 -7.56,-3.25 -7.56,-3.25 -0.55,1.5 -5.22,5.29 -5.22,7 0,1.93 2.08,3.49 4.65,3.49 0.19,0 0.39,0 0.57,-0.03 l 1.14,1.28 c -0.04,0.23 -0.07,0.46 -0.07,0.71 0,1.49 0.85,2.69 1.9,2.69 0.89,0 1.64,-0.87 1.84,-2.04 2.96,-1.82 8.7,-1.65 14.53,1.56 z"
       id="Hualpén"
       title="HHUALPÉN"
       inkscape:connector-curvature="0"
       style="fill:#e6007e;fill-rule:evenodd;stroke:#72003f;stroke-width:3;stroke-linejoin:round" />
            <path
       class="cls-4"
       d="m 136.39,74.67 c 1.33,-0.24 2.56,-1.15 3.44,-3.19 0.83,-1.93 0.11,-3.61 -1.01,-4.92 -0.51,0.24 -1.08,0.37 -1.69,0.37 -2.21,0 -4,-1.79 -4,-4 0,-1.91 2.87,-3.72 4.66,-4.11 l 3.34,-17.87 5.07,2.3 c 0,0 -3.04,14.39 -1.5,19.78 1.26,4.42 10.39,5.63 15.77,4.93 l -4.92,7.02 1.26,0.92 -4.96,4.53 -8.48,-2.31 -6.97,-3.45 z"
       id="Talcahuano"
       title="TALCAHUANO"
       inkscape:connector-curvature="0"
       style="fill:#e6007e;stroke:#72003f;stroke-width:3;stroke-width:3;stroke-linejoin:round" />
            <path
       inkscape:label="#path5607"
       class="cls-4"
       d="m 163.59,119.03 1.22,-5.8 5.36,0.34 5.12,-5.7 -0.39,-5.13 5,1.07 5.36,6.82 7.37,-4.23 7.13,10.49 17.27,-0.63 -6.89,5.76 6.75,3.38 -2,12.25 -6.5,4.25 -1.72,18.78 c 0,0 -5.35,2.99 -5.68,3.22 -0.33,0.22 -0.89,5.65 -0.89,5.65 -3.37,-0.15 -5.97,0.12 -6.57,-0.02 -0.92,-2.89 -5.67,-5.17 -8.91,-4.55 -16.41,-10.54 -10.89,-36.9 -10.31,-44.42 0.07,-0.95 -0.62,-2.1 -1.81,-1.83 -2.14,0.49 -5.54,1.57 -8.89,0.3 z"
       id="Hualqui"
       title="HUALQUI"
       inkscape:connector-curvature="0"
       style="fill:#e6007e;stroke:#72003f;stroke-width:3;stroke-width:3;stroke-linejoin:round" />
            <path
       inkscape:label="#path5609"
       class="cls-6"
       d="m 156.61,118.46 c -0.21,-0.48 -0.29,-0.8 -0.29,-0.8 -1.65,-9.36 -2.79,-21.58 -7.68,-25.53 -1.72,-1.39 -10.85,-4.7 -12.01,-4.63 -1.02,0.07 -0.94,12.06 -1.55,19.55 l 13.9,3.39 3.83,10.89 z"
       id="San_Pedro_de_la_Paz"
       title="SAN PEDRO DE LA PAZ"
       inkscape:connector-curvature="0"
       style="fill:#e6007e;fill-rule:evenodd;stroke:#72003f;stroke-width:3;stroke-linejoin:round" />
            <g
       inkscape:label="#g3848"
       id="Coronel">
            <path
            style="fill:#e6007e;fill-rule:evenodd;stroke:#72003f;stroke-width:3;stroke-linejoin:round"
         inkscape:connector-curvature="0"
         id="path5611"
         title="CORONEL"
         d="m 168.98,142.7 c 0.04,-3.47 0.38,-7.03 0.68,-10.59 0.14,-1.68 -6.01,-9.52 -7.2,-9.63 -3.73,-0.34 -5.28,-2.74 -5.85,-4.03 l -3.8,2.88 -3.83,-10.89 -13.9,-3.39 c -0.54,6.63 -1.63,13.65 -3.72,18.49 -1.4,3.22 3.57,9.25 3.57,9.25 0,0 2.89,-2.78 3.75,-2.73 0.83,0.05 3.07,8.33 3.46,11.96 l 3.66,-0.17 8.14,-4.26 5.87,9.7 4.6,-6.72 4.56,0.12 z"
         class="cls-6"
         inkscape:label="#path5611" />
            <path
            style="fill:#e6007e;fill-rule:evenodd;stroke:#72003f;stroke-width:3;stroke-linejoin:round"
         inkscape:connector-curvature="0"
         id="path5617"
         title="ISLA SANTA MARÍA (CORONEL)"
         d="m 72.2,126.18 c -1.57,-4.25 -5.61,3.75 -4.77,10.18 0.64,4.91 2.53,11.73 5.06,9.85 1.36,-1.01 1.21,-1.97 1.46,-3.41 0.22,-1.23 3.72,-2.49 3.72,-2.49 2.1,1.48 4.54,4.32 6.18,2.74 4.58,-4.41 -8.48,-8.29 -11.65,-16.87 z"
         class="cls-6" />
            </g>
            <path
            style="fill:#e6007e;fill-rule:evenodd;stroke:#72003f;stroke-width:3;stroke-linejoin:round"
       inkscape:connector-curvature="0"
       inkscape:label="#path5785"
       id="Chiguayante"
       title="CHIGUAYANTE"
       d="m 174.92,102.75 0.38,5.14 -5.12,5.7 -5.36,-0.34 -1.21,5.81 c -1.16,-0.44 -2.32,-1.15 -3.42,-2.27 -3.13,-3.2 -0.77,-13.02 -3.58,-21.13 l 17.1,0.7 1.2,6.39 z"
       class="cls-6" />
            <path
            style="fill:#e6007e;stroke:#72003f;stroke-width:3;stroke-linejoin:round"
       inkscape:connector-curvature="0"
       inkscape:label="#path6666"
       id="Concepción"
       title="CONCEPCIÓN"
       d="m 174.92,102.75 -1.2,-6.39 -17.1,-0.71 c -0.07,-0.21 -0.15,-0.42 -0.23,-0.63 -1.03,-2.68 -2.67,-5.14 -5.32,-7.08 -0.96,-0.7 -1.93,-1.32 -2.89,-1.85 l 3.69,-5.64 4.96,-4.53 5.14,3.74 11.63,-5.63 5.77,6.22 8.66,-0.33 4.38,1.38 -3.2,14 3.45,11.13 -7.38,4.23 -5.36,-6.82 -4.99,-1.08 z"
       class="cls-4" />
        </g>
        <g
     id="Provincia_Arauco"
     inkscape:label="#g3757">
            <path 
       style="fill:#0070ba;stroke:#004674;stroke-width:3;stroke-linejoin:round"
       inkscape:label="#path5789"
       id="Arauco"
       title="ARAUCO"
       d="M64.31,231.76l8.51-.57,6.25-5.78,18.02-19.97,17.42,3.83,6.58-5.04,5.45,5.04,19.28-2.25,9.9-22.45-8-2.27-1.9-5.87,5.3-3.97-.57-8.28-2.41-.99-12.22,.21c-3.27,5.29-8.59,10.68-17.25,15.65-10.74,6.16-26.62,10.28-30.71-2.31-4.4-1.38-15.26,.4-18.51-1.43-.75-.42-1.35-.91-1.85-1.44,.35-.68,.56-1.52,.56-2.43,0-2.24-3-6.64-3.64-6.9-7.61-3.04-13.3,16.64-13.3,16.64l-2.21,20.5-4.86,4.33,3.8,5.5c5.26,3.2,14.2,7.39,16.34,20.24Z"
       class="cls-1" />
            <path
            style="fill:#0070ba;stroke:#004674;stroke-width:3;stroke-linejoin:round"
       inkscape:label="#path5793"
       id="Curanilahue"
       title="CURANILAHUE"
       d="M170.14,228.49l-22.99-5.6-1.33-15.86-19.28,2.25-5.45-5.04-6.58,5.04-17.42-3.83-18.02,19.97-.26,.24,4.39,1.79,11.49,10.04-3.05,15.71,9.16-.58,15.42,10.33,26.62,.73,8.73,11.2,1.37,6.68s6.51-2.22,9-5.5c4.75-6.25-.73-14.5-.73-14.5l8.31-14.99-2.49-13.8,3.11-4.26Z"
       class="cls-5" />
            <path
            style="fill:#0070ba;stroke:#004674;stroke-width:3;stroke-linejoin:round"
       inkscape:label="#path5795"
       id="Los Álamos"
       title="LOS ÁLAMOS"
       d="M91.68,253.19l9.14-.59,15.42,10.33,26.62,.73,8.73,11.2,1.37,6.68-2.3,7-14,2.75-5.25,5.62-22-11-14.12,4.62-5.5,15.25-4.62,13.62-8.02,6.61c-2.13-3.93-4.33-7.75-6.51-11.3,0,0,9.62-13.68,10.11-14.17,.49-.49,1.62-19.58,1.62-19.58l-5.48-14.32,.75-2,4.73,3.42,9.34-14.87Z"
       class="cls-5" />
            <path
            style="fill:#0070ba;stroke:#004674;stroke-width:3;stroke-linejoin:round"
       inkscape:label="#path5797"
       id="Cañete"
       title="CAÑETE"
       d="M153,281.54l2.61,6.23s12.06-6.16,15.66,3.08c.85,2.2-.06,6.69-3.81,11.19-.05,.63,1.07,12.44-.5,14.75-1.78,2.92-3.62,4.89-5.33,6.2l-12.38-3.7s-9.21,5.92-9.04,6.44c.17,.52-9.04-8-9.04-8l-12.02,12.19,4.36,5.19-8.17,7.65,14.23,13.4,1.42,8.17-6.1,4.33-5.4,10.98-23.79,1.23c0-5.88-.57-12.02-2.22-17.65-2.85-9.73-9.24-24.1-16.35-37.22l8.02-6.6,4.62-13.62,5.5-15.25,14.12-4.62,22,11,5.25-5.62,14-2.75,2.35-7Z"
       class="cls-5" />
            <path
            style="fill:#0070ba;stroke:#004674;stroke-width:3;stroke-linejoin:round"
       inkscape:label="#path5799"
       id="Contulmo"
       title="CONTULMO"
       d="M119.48,379.65l-.28,10.69,3.54,5.95,7.81,1.86,4.09,6.33-2.76,12.89c6.89-6.05,11.39-10.88,21.27-22.43,2.15-2.52,6.53,.78,8.19-2.4,3.06-5.89,4.01-16.47-2.99-20.31-8.14-3.6-19.2-9.2-19.2-9.2l4.65-12.37s10.78-.41,12.51-11.82c1.33-8.76-2.5-13.34-2.5-13.34,0,0,3.52,.78,7.81-2.51l-12.38-3.7s-9.21,5.92-9.04,6.44c.17,.52-9.04-8-9.04-8l-12.02,12.19,4.36,5.19-8.17,7.65,14.23,13.4,1.42,8.17-6.1,4.33-5.41,10.97Z"
       class="cls-1" />
            <path
            style="fill:#0070ba;stroke:#004674;stroke-width:3;stroke-linejoin:round"
       inkscape:label="#path5801"
       id="Tirúa"
       title="TIRÚA"
       d="M119.5,379.65l-.29,10.69,3.54,5.95,7.81,1.86,4.09,6.33-2.76,12.89c-2.25,1.98-4.76,4.09-7.79,6.6-8.85,7.34-5.32,12.49-5.32,12.49,0,0,3.72-.02,5.13,1.52,2.01,2.2,4.07,8.78,5.05,11.23,.62,1.56-.19,3.93-.69,5.14,2.14,.9,3.64,3.02,3.64,5.48,0,3.28-2.66,5.95-5.95,5.95s-5.95-2.66-5.95-5.95c0-1.17,1.68-3.3,1.71-5.57,.09-5.96-11.04-10.56-11.04-10.56,0,0-20.58,19.52-22.48,18.66-2.51-1.14-4.09-8.43-3.23-17.23,.76-7.7,5.16-11.63,5.5-19.59-7.32-2.84-6.64-17.14,2.32-18.84,.75-4.12,2.9-14.5,2.91-25.81l23.8-1.23Z"
       class="cls-1" />
            <g
       inkscape:label="#g3852"
       id="Lebu">
            <path
            style="fill:#0070ba;stroke:#004674;stroke-width:3;stroke-linejoin:round"
         class="cls-5"
         d="M78.82,225.65l4.39,1.79,11.49,10.04-3.05,15.71-9.31,14.87-4.73-3.42-.75,2,5.48,14.32s-1.13,19.09-1.62,19.58c-.49,.49-10.11,14.17-10.11,14.17-6.29-10.21-12.5-18.19-16.8-20.14,0,0,1.46-8.35,.35-13.5-.89-4.12-4.26-9.93-4.26-9.93,0,0,.43-1.62,1.09-3.8,2.58-.11,4.64-2.24,4.64-4.85,0-1.43-.62-2.72-1.6-3.6,.43-.93,.86-1.69,1.26-2.16,4.59-5.4,9.74-7.87,9.48-19.86-.04-1.85-.2-3.55-.47-5.12l8.53-.56,6-5.54Z"
         id="path5791"
         title="LEBU"
         inkscape:label="#path5791" />
            <path
            style="fill:#0070ba;stroke:#004674;stroke-width:3;stroke-linejoin:round"
         class="cls-1"
         d="M12.39,449.12c-.47-.15-7.69-2.65-9.41-9.09s-5.02-13.34,.94-12.71c5.97,.63,15.06,11.29,14.74,15.21-.31,3.93-4.7,7.21-4.7,7.21l-1.57-.63Z"
         id="path5803"
         title="ISLA MOCHA (LEBU)" />
            </g>
        </g>
        </svg>